<svg id="组_118" data-name="组 118" xmlns="http://www.w3.org/2000/svg" xmlns:xlink="http://www.w3.org/1999/xlink" viewBox="0 0 18 26">
  <defs>
    <style>
      .aver-click {
        fill: #33c35e;
      }

      .aver-click-2 {
        clip-path: url(#clip-path);
      }
    </style>
    <clipPath id="clip-path">
      <rect class="aver-click" width="18" height="26"/>
    </clipPath>
  </defs>
  <g class="aver-click-2">
    <path class="aver-click" d="M11.232 9.2l.082-.08a4.889 4.889 0 0 0 0-4.784A4.877 4.877 0 0 0 7.073 1.984a5.117 5.117 0 0 0-2.415.649 4.641 4.641 0 0 0-2.415 3 4.306 4.306 0 0 0 .584 3.489l.082.163H.83v-.08a6.37 6.37 0 0 1 0-4.947A6.814 6.814 0 0 1 7.073.2 7.312 7.312 0 0 1 9.655.686a6.376 6.376 0 0 1 3.661 3.489 5.885 5.885 0 0 1 0 5.027v.08h-2.08V9.2Zm6.656 5.433a1.826 1.826 0 0 0-1.663-1.458 1.464 1.464 0 0 0-1.165.569v-.163a1.655 1.655 0 0 0-1.581-1.7 1.71 1.71 0 0 0-1.581 1.7V12.69a1.655 1.655 0 0 0-1.581-1.7 1.71 1.71 0 0 0-1.581 1.7v-5.6a1.655 1.655 0 0 0-1.581-1.7 1.64 1.64 0 0 0-1.5 1.7v9.9a.844.844 0 0 1-.833.892H4.576l-2.247-.968c-.249-.163-.5-.08-.752-.163C.748 16.506 0 17.561 0 18.45c0 .569.666 1.3 1 1.621l6.076 6.086h9.32c.249-1.135 1.165-5.433 1.5-8.113a15.467 15.467 0 0 0 0-3.409Zm0 0" transform="translate(0 -0.193)"/>
  </g>
</svg>
